<svg width="740" height="183" viewBox="130 158 740 183" fill="none" xmlns="http://www.w3.org/2000/svg">
<path fill-rule="evenodd" clip-rule="evenodd" d="M289.852 163.833H300.535V174.524H289.852V163.833ZM263.173 217.272V238.684C263.173 238.684 263.173 244.319 263.097 246.162C263.005 248.69 262.914 251.172 262.655 253.639C261.955 260.233 260.494 266.493 257.481 271.792C256.614 273.331 255.731 274.808 254.681 276.209C248.258 284.783 238.488 291.225 226.282 293.007C224.837 293.22 221.899 293.403 220.438 293.403C218.977 293.403 216.04 293.22 214.594 293.007C202.404 291.225 192.618 284.783 186.196 276.209C185.146 274.793 184.263 273.315 183.396 271.792C180.382 266.493 178.921 260.233 178.221 253.639C177.963 251.172 177.871 248.69 177.78 246.162C177.704 244.319 177.704 238.684 177.704 238.684V165.173H135V245.415C135 253.243 135.67 262.518 137.192 269.813C138.044 273.894 139.353 277.93 140.874 281.813C142.427 285.788 144.238 289.595 146.186 293.007C148.743 297.469 151.695 301.748 155.119 305.769C155.285 305.962 155.449 306.155 155.613 306.348L155.613 306.348C156.428 307.307 157.233 308.254 158.133 309.18C159.051 310.166 160.017 311.105 160.989 312.049L160.989 312.049L160.989 312.049L161.359 312.409C175.025 325.582 192.831 333.806 211.459 335.694C213.696 335.923 218.186 336.151 220.438 336.166C222.691 336.166 227.18 335.923 229.418 335.694C248.03 333.806 265.851 325.567 279.518 312.409C280.614 311.358 281.694 310.292 282.744 309.18C283.685 308.198 284.543 307.192 285.412 306.173L285.413 306.173L285.413 306.172L285.413 306.172C285.528 306.038 285.643 305.903 285.758 305.769C289.182 301.748 292.134 297.469 294.691 293.007C296.654 289.595 298.45 285.788 300.002 281.813C301.524 277.93 302.818 273.879 303.685 269.813C305.222 262.518 305.877 253.243 305.877 245.415V238.638H284.525L284.525 217.272H305.877V195.891H284.525V207.906L284.525 217.272H263.173ZM596.143 295.109C601.104 295.109 606.644 293.784 610.753 292.094L623.902 305.983H648.039L626.793 283.398C636.685 274.458 640.186 260.935 640.186 250.548C640.186 244.868 639.349 239.081 637.172 233.522C632.47 221.08 619.549 206.231 596.143 206.231C572.736 206.231 559.937 221.08 555.234 233.644C553.058 239.203 552.221 244.868 552.221 250.548C552.221 256.229 553.058 262.016 555.113 267.575C559.937 280.139 572.614 295.109 596.143 295.109ZM614.725 270.712C610.753 275.296 603.995 279.286 596.264 279.286C588.427 279.286 581.669 275.418 577.682 270.712C572.858 265.168 571.29 257.188 571.29 250.548C571.29 243.908 572.858 236.187 577.682 230.507C581.654 225.801 588.305 222.176 596.143 222.176C603.98 222.176 610.737 225.801 614.725 230.507C619.549 236.05 621.117 243.908 621.117 250.548C621.117 257.188 619.549 265.153 614.725 270.712ZM413.473 257.188C413.229 260.935 412.864 264.803 411.053 268.184H411.084C407.827 273.864 401.907 277.367 395.271 277.367C388.636 277.367 382.594 273.864 379.581 268.427C377.526 264.803 377.161 260.935 377.039 258.163V207.922H359.294V256.945C359.294 260.204 359.522 264.072 360.131 267.209C360.861 270.468 362.307 274.093 363.997 276.986C365.321 279.392 367.01 281.692 368.943 283.748C375.822 290.982 385.364 295.094 395.256 295.094C405.148 295.094 414.69 290.997 421.448 283.748C423.38 281.692 425.07 279.408 426.515 276.986C428.083 274.093 429.529 270.468 430.259 267.209C430.853 264.072 431.218 260.204 431.218 256.945V207.922H413.473V257.188ZM445.433 207.922V293.419H445.448H477.422C499.748 293.419 508.925 280.87 508.925 268.306C508.925 262.381 505.303 253.213 496.248 249.223C502.168 245.233 505.182 237.497 505.182 233.035C505.182 220.486 496.005 207.922 473.557 207.922H445.433ZM463.178 243.056V223.014H473.557C483.693 223.014 487.193 226.273 487.193 233.035C487.193 239.797 483.693 243.056 473.557 243.056H463.178ZM463.178 278.189V258.27H477.422C487.436 258.27 490.937 261.529 490.937 268.29C490.937 275.052 487.436 278.189 477.422 278.189H463.178ZM522.425 207.922H540.17V293.419H522.425V207.922ZM703.664 268.184C705.475 264.803 705.841 260.935 706.084 257.188V207.922H723.829V256.945C723.829 260.204 723.464 264.072 722.87 267.209C722.14 270.468 720.694 274.093 719.127 276.986C717.681 279.408 715.992 281.692 714.059 283.748C707.302 290.997 697.759 295.094 687.867 295.094C677.975 295.094 668.433 290.982 661.554 283.748C659.621 281.692 657.932 279.392 656.608 276.986C654.918 274.093 653.473 270.468 652.742 267.209C652.133 264.072 651.905 260.204 651.905 256.945V207.922H669.65V258.163C669.772 260.935 670.137 264.803 672.192 268.427C675.205 273.864 681.247 277.367 687.882 277.367C694.518 277.367 700.438 273.864 703.695 268.184H703.664ZM755.806 207.922H738.061V293.419H755.806V207.922ZM836.649 207.922V223.014H810.457V293.419H792.712V223.014H766.52V207.922H836.633H836.649ZM865 207.922H847.254V293.419H865V207.922ZM268.499 179.869H284.524V195.905H268.499V179.869Z" fill="#212124"/>
<path fill-rule="evenodd" clip-rule="evenodd" d="M289.852 163.833H300.535V174.524H289.852V163.833ZM263.173 217.272V238.684C263.173 238.684 263.173 244.319 263.097 246.162C263.005 248.69 262.914 251.172 262.655 253.639C261.955 260.233 260.494 266.493 257.481 271.792C256.614 273.331 255.731 274.808 254.681 276.209C248.258 284.783 238.488 291.225 226.282 293.007C224.837 293.22 221.899 293.403 220.438 293.403C218.977 293.403 216.04 293.22 214.594 293.007C202.404 291.225 192.618 284.783 186.196 276.209C185.146 274.793 184.263 273.315 183.396 271.792C180.382 266.493 178.921 260.233 178.221 253.639C177.963 251.172 177.871 248.69 177.78 246.162C177.704 244.319 177.704 238.684 177.704 238.684V165.173H135V245.415C135 253.243 135.67 262.518 137.192 269.813C138.044 273.894 139.353 277.93 140.874 281.813C142.427 285.788 144.238 289.595 146.186 293.007C148.743 297.469 151.695 301.748 155.119 305.769C155.285 305.962 155.449 306.155 155.613 306.348L155.613 306.348C156.428 307.307 157.233 308.254 158.133 309.18C159.051 310.166 160.017 311.105 160.989 312.049L160.989 312.049L160.989 312.049L161.359 312.409C175.025 325.582 192.831 333.806 211.459 335.694C213.696 335.923 218.186 336.151 220.438 336.166C222.691 336.166 227.18 335.923 229.418 335.694C248.03 333.806 265.851 325.567 279.518 312.409C280.614 311.358 281.694 310.292 282.744 309.18C283.685 308.198 284.543 307.192 285.412 306.173L285.413 306.173L285.413 306.172L285.413 306.172C285.528 306.038 285.643 305.903 285.758 305.769C289.182 301.748 292.134 297.469 294.691 293.007C296.654 289.595 298.45 285.788 300.002 281.813C301.524 277.93 302.818 273.879 303.685 269.813C305.222 262.518 305.877 253.243 305.877 245.415V238.638H284.525L284.525 217.272H305.877V195.891H284.525V207.906L284.525 217.272H263.173ZM596.143 295.109C601.104 295.109 606.644 293.784 610.753 292.094L623.902 305.983H648.039L626.793 283.398C636.685 274.458 640.186 260.935 640.186 250.548C640.186 244.868 639.349 239.081 637.172 233.522C632.47 221.08 619.549 206.231 596.143 206.231C572.736 206.231 559.937 221.08 555.234 233.644C553.058 239.203 552.221 244.868 552.221 250.548C552.221 256.229 553.058 262.016 555.113 267.575C559.937 280.139 572.614 295.109 596.143 295.109ZM614.725 270.712C610.753 275.296 603.995 279.286 596.264 279.286C588.427 279.286 581.669 275.418 577.682 270.712C572.858 265.168 571.29 257.188 571.29 250.548C571.29 243.908 572.858 236.187 577.682 230.507C581.654 225.801 588.305 222.176 596.143 222.176C603.98 222.176 610.737 225.801 614.725 230.507C619.549 236.05 621.117 243.908 621.117 250.548C621.117 257.188 619.549 265.153 614.725 270.712ZM413.473 257.188C413.229 260.935 412.864 264.803 411.053 268.184H411.084C407.827 273.864 401.907 277.367 395.271 277.367C388.636 277.367 382.594 273.864 379.581 268.427C377.526 264.803 377.161 260.935 377.039 258.163V207.922H359.294V256.945C359.294 260.204 359.522 264.072 360.131 267.209C360.861 270.468 362.307 274.093 363.997 276.986C365.321 279.392 367.01 281.692 368.943 283.748C375.822 290.982 385.364 295.094 395.256 295.094C405.148 295.094 414.69 290.997 421.448 283.748C423.38 281.692 425.07 279.408 426.515 276.986C428.083 274.093 429.529 270.468 430.259 267.209C430.853 264.072 431.218 260.204 431.218 256.945V207.922H413.473V257.188ZM445.433 207.922V293.419H445.448H477.422C499.748 293.419 508.925 280.87 508.925 268.306C508.925 262.381 505.303 253.213 496.248 249.223C502.168 245.233 505.182 237.497 505.182 233.035C505.182 220.486 496.005 207.922 473.557 207.922H445.433ZM463.178 243.056V223.014H473.557C483.693 223.014 487.193 226.273 487.193 233.035C487.193 239.797 483.693 243.056 473.557 243.056H463.178ZM463.178 278.189V258.27H477.422C487.436 258.27 490.937 261.529 490.937 268.29C490.937 275.052 487.436 278.189 477.422 278.189H463.178ZM522.425 207.922H540.17V293.419H522.425V207.922ZM703.664 268.184C705.475 264.803 705.841 260.935 706.084 257.188V207.922H723.829V256.945C723.829 260.204 723.464 264.072 722.87 267.209C722.14 270.468 720.694 274.093 719.127 276.986C717.681 279.408 715.992 281.692 714.059 283.748C707.302 290.997 697.759 295.094 687.867 295.094C677.975 295.094 668.433 290.982 661.554 283.748C659.621 281.692 657.932 279.392 656.608 276.986C654.918 274.093 653.473 270.468 652.742 267.209C652.133 264.072 651.905 260.204 651.905 256.945V207.922H669.65V258.163C669.772 260.935 670.137 264.803 672.192 268.427C675.205 273.864 681.247 277.367 687.882 277.367C694.518 277.367 700.438 273.864 703.695 268.184H703.664ZM755.806 207.922H738.061V293.419H755.806V207.922ZM836.649 207.922V223.014H810.457V293.419H792.712V223.014H766.52V207.922H836.633H836.649ZM865 207.922H847.254V293.419H865V207.922ZM268.499 179.869H284.524V195.905H268.499V179.869Z" fill="url(#paint0_linear_827_1289)"/>
<path fill-rule="evenodd" clip-rule="evenodd" d="M289.852 163.833H300.535V174.524H289.852V163.833ZM263.173 217.272V238.684C263.173 238.684 263.173 244.319 263.097 246.162C263.005 248.69 262.914 251.172 262.655 253.639C261.955 260.233 260.494 266.493 257.481 271.792C256.614 273.331 255.731 274.808 254.681 276.209C248.258 284.783 238.488 291.225 226.282 293.007C224.837 293.22 221.899 293.403 220.438 293.403C218.977 293.403 216.04 293.22 214.594 293.007C202.404 291.225 192.618 284.783 186.196 276.209C185.146 274.793 184.263 273.315 183.396 271.792C180.382 266.493 178.921 260.233 178.221 253.639C177.963 251.172 177.871 248.69 177.78 246.162C177.704 244.319 177.704 238.684 177.704 238.684V165.173H135V245.415C135 253.243 135.67 262.518 137.192 269.813C138.044 273.894 139.353 277.93 140.874 281.813C142.427 285.788 144.238 289.595 146.186 293.007C148.743 297.469 151.695 301.748 155.119 305.769C155.285 305.962 155.449 306.155 155.613 306.348L155.613 306.348C156.428 307.307 157.233 308.254 158.133 309.18C159.051 310.166 160.017 311.105 160.989 312.049L160.989 312.049L160.989 312.049L161.359 312.409C175.025 325.582 192.831 333.806 211.459 335.694C213.696 335.923 218.186 336.151 220.438 336.166C222.691 336.166 227.18 335.923 229.418 335.694C248.03 333.806 265.851 325.567 279.518 312.409C280.614 311.358 281.694 310.292 282.744 309.18C283.685 308.198 284.543 307.192 285.412 306.173L285.413 306.173L285.413 306.172L285.413 306.172C285.528 306.038 285.643 305.903 285.758 305.769C289.182 301.748 292.134 297.469 294.691 293.007C296.654 289.595 298.45 285.788 300.002 281.813C301.524 277.93 302.818 273.879 303.685 269.813C305.222 262.518 305.877 253.243 305.877 245.415V238.638H284.525L284.525 217.272H305.877V195.891H284.525V207.906L284.525 217.272H263.173ZM596.143 295.109C601.104 295.109 606.644 293.784 610.753 292.094L623.902 305.983H648.039L626.793 283.398C636.685 274.458 640.186 260.935 640.186 250.548C640.186 244.868 639.349 239.081 637.172 233.522C632.47 221.08 619.549 206.231 596.143 206.231C572.736 206.231 559.937 221.08 555.234 233.644C553.058 239.203 552.221 244.868 552.221 250.548C552.221 256.229 553.058 262.016 555.113 267.575C559.937 280.139 572.614 295.109 596.143 295.109ZM614.725 270.712C610.753 275.296 603.995 279.286 596.264 279.286C588.427 279.286 581.669 275.418 577.682 270.712C572.858 265.168 571.29 257.188 571.29 250.548C571.29 243.908 572.858 236.187 577.682 230.507C581.654 225.801 588.305 222.176 596.143 222.176C603.98 222.176 610.737 225.801 614.725 230.507C619.549 236.05 621.117 243.908 621.117 250.548C621.117 257.188 619.549 265.153 614.725 270.712ZM413.473 257.188C413.229 260.935 412.864 264.803 411.053 268.184H411.084C407.827 273.864 401.907 277.367 395.271 277.367C388.636 277.367 382.594 273.864 379.581 268.427C377.526 264.803 377.161 260.935 377.039 258.163V207.922H359.294V256.945C359.294 260.204 359.522 264.072 360.131 267.209C360.861 270.468 362.307 274.093 363.997 276.986C365.321 279.392 367.01 281.692 368.943 283.748C375.822 290.982 385.364 295.094 395.256 295.094C405.148 295.094 414.69 290.997 421.448 283.748C423.38 281.692 425.07 279.408 426.515 276.986C428.083 274.093 429.529 270.468 430.259 267.209C430.853 264.072 431.218 260.204 431.218 256.945V207.922H413.473V257.188ZM445.433 207.922V293.419H445.448H477.422C499.748 293.419 508.925 280.87 508.925 268.306C508.925 262.381 505.303 253.213 496.248 249.223C502.168 245.233 505.182 237.497 505.182 233.035C505.182 220.486 496.005 207.922 473.557 207.922H445.433ZM463.178 243.056V223.014H473.557C483.693 223.014 487.193 226.273 487.193 233.035C487.193 239.797 483.693 243.056 473.557 243.056H463.178ZM463.178 278.189V258.27H477.422C487.436 258.27 490.937 261.529 490.937 268.29C490.937 275.052 487.436 278.189 477.422 278.189H463.178ZM522.425 207.922H540.17V293.419H522.425V207.922ZM703.664 268.184C705.475 264.803 705.841 260.935 706.084 257.188V207.922H723.829V256.945C723.829 260.204 723.464 264.072 722.87 267.209C722.14 270.468 720.694 274.093 719.127 276.986C717.681 279.408 715.992 281.692 714.059 283.748C707.302 290.997 697.759 295.094 687.867 295.094C677.975 295.094 668.433 290.982 661.554 283.748C659.621 281.692 657.932 279.392 656.608 276.986C654.918 274.093 653.473 270.468 652.742 267.209C652.133 264.072 651.905 260.204 651.905 256.945V207.922H669.65V258.163C669.772 260.935 670.137 264.803 672.192 268.427C675.205 273.864 681.247 277.367 687.882 277.367C694.518 277.367 700.438 273.864 703.695 268.184H703.664ZM755.806 207.922H738.061V293.419H755.806V207.922ZM836.649 207.922V223.014H810.457V293.419H792.712V223.014H766.52V207.922H836.633H836.649ZM865 207.922H847.254V293.419H865V207.922ZM268.499 179.869H284.524V195.905H268.499V179.869Z" fill="black"/>
<defs>
<linearGradient id="paint0_linear_827_1289" x1="376.144" y1="428.769" x2="418.931" y2="195.167" gradientUnits="userSpaceOnUse">
<stop stop-color="#C2C4CE"/>
<stop offset="0.39697" stop-color="#D6D9E2"/>
<stop offset="1" stop-color="white"/>
</linearGradient>
</defs>
</svg>
